G04 ===== Begin FILE IDENTIFICATION =====*
G04 File Format:  Gerber RS274X*
G04 ===== End FILE IDENTIFICATION =====*
%FSLAX24Y24*%
%MOIN*%
%SFA1.0000B1.0000*%
%OFA0.0B0.0*%
%ADD14R,0.019646X0.196850*%
%ADD15R,0.012795X0.196850*%
%ADD16R,0.003150X0.007677*%
%ADD17R,0.025965X0.001969*%
%ADD18R,0.060236X0.015748*%
%ADD19R,0.036614X0.016535*%
%ADD20R,0.063386X0.015748*%
%LNcond*%
%IPPOS*%
%LPD*%
G75*
D14*
X202Y-1988D03*
D15*
X0D03*
D16*
X0Y-3051D03*
G36*
G01X103Y-2972D02*
G01X40Y-3028D01*
G01Y-3070D01*
G01X300D01*
G01Y-2972D01*
G01X103D01*
G37*
G36*
G01X-103Y-2972D02*
G01X-40Y-3028D01*
G01Y-3070D01*
G01X-300D01*
G01Y-2972D01*
G01X-103D01*
G37*
D17*
X-170Y-3080D03*
G36*
G01X-83Y-965D02*
G01X-64Y-1004D01*
G01X64D01*
G01X83Y-965D01*
G01X-83D01*
G37*
G36*
G01X-15Y-3016D02*
G01X-64Y-2972D01*
G01X64D01*
G01X15Y-3016D01*
G01X-15D01*
G37*
D17*
X170Y-3080D03*
D14*
X-202Y-1988D03*
D18*
X0Y583D03*
G36*
G01X-83Y-185D02*
G01Y-965D01*
G01X83D01*
G01Y-185D01*
G01X-83D01*
G37*
D19*
X344Y-394D03*
X-344D03*
D20*
X-2Y386D03*
G36*
G01X-343Y-268D02*
G01X-161D01*
G01Y-98D01*
G01X-83D01*
G01Y-268D01*
G01X83D01*
G01Y-98D01*
G01X161D01*
G01Y-268D01*
G01X343D01*
G01Y268D01*
G01X-343D01*
G01Y-268D01*
G37*
M02*

